<?xml version="1.0" encoding="UTF-8"?><svg id="Layer_2" xmlns="http://www.w3.org/2000/svg" viewBox="0 0 1285.01 705.38"><defs><style>.cls-1{fill:none;}.cls-1,.cls-2,.cls-3,.cls-4,.cls-5{stroke-linejoin:round;}.cls-1,.cls-2,.cls-3,.cls-4,.cls-5,.cls-6{stroke:#000;}.cls-1,.cls-2,.cls-4,.cls-5,.cls-6{stroke-width:5px;}.cls-2,.cls-3{fill:#ffdeae;}.cls-7{fill:#f2f0dd;}.cls-3{stroke-width:5.01px;}.cls-4{fill:#aa7248;}.cls-5{fill:#ad8848;}.cls-5,.cls-8{opacity:.57;}.cls-8{fill:#6e6978;}.cls-9{opacity:.43;}.cls-6{fill:#eed0c2;stroke-miterlimit:10;}</style></defs><g id="Layer_1-2"><rect class="cls-6" x="2.51" y="2.52" width="1280" height="700"/><rect class="cls-8" x="529.03" y="2.82" width="242.6" height="700"/><path class="cls-4" d="m1142.42,700.54l-63.93-39.81c-4.51-2.81-7.28-7.95-7.28-13.5V57.64c0-3.51,1.69-6.79,4.48-8.68l62.9-42.67c3.23-2.19,7.48.27,7.48,4.34v687.7c0,1.98-2.03,3.22-3.64,2.21Z"/><rect class="cls-3" x="2.51" y="3.46" width="145.26" height="699.41"/><path class="cls-4" d="m146.95,700.29l63.93-39.8c4.51-2.81,7.28-7.94,7.28-13.49V57.62c0-3.51-1.69-6.78-4.48-8.68L150.78,6.28c-3.23-2.19-7.48.27-7.48,4.34v687.45c0,1.98,2.03,3.22,3.64,2.21Z"/><g class="cls-9"><rect class="cls-4" x="186.46" y="336.76" width="17.84" height="56.05" rx="8.92" ry="8.92"/><rect class="cls-4" x="186.85" y="437.84" width="17.84" height="56.05" rx="8.92" ry="8.92"/><rect class="cls-4" x="186.85" y="538.92" width="17.84" height="56.05" rx="8.92" ry="8.92"/><rect class="cls-4" x="186.85" y="235.68" width="17.84" height="56.05" rx="8.92" ry="8.92"/><rect class="cls-4" x="186.85" y="134.6" width="17.84" height="56.05" rx="8.92" ry="8.92"/><rect class="cls-4" x="158.67" y="381.93" width="17.84" height="56.05" rx="8.92" ry="8.92"/><rect class="cls-4" x="159.06" y="483.01" width="17.84" height="56.05" rx="8.92" ry="8.92"/><rect class="cls-4" x="159.06" y="584.09" width="17.84" height="56.05" rx="8.92" ry="8.92"/><rect class="cls-4" x="159.06" y="280.85" width="17.84" height="56.05" rx="8.92" ry="8.92"/><rect class="cls-4" x="159.06" y="179.77" width="17.84" height="56.05" rx="8.92" ry="8.92"/><rect class="cls-4" x="158.67" y="78.69" width="17.84" height="56.05" rx="8.92" ry="8.92"/></g><g class="cls-9"><rect class="cls-4" x="1083.84" y="331.39" width="17.84" height="56.05" rx="8.92" ry="8.92" transform="translate(2185.52 718.83) rotate(-180)"/><rect class="cls-4" x="1083.45" y="432.47" width="17.84" height="56.05" rx="8.92" ry="8.92" transform="translate(2184.74 920.99) rotate(180)"/><rect class="cls-4" x="1083.45" y="533.55" width="17.84" height="56.05" rx="8.92" ry="8.92" transform="translate(2184.74 1123.16) rotate(180)"/><rect class="cls-4" x="1083.45" y="230.31" width="17.84" height="56.05" rx="8.92" ry="8.92" transform="translate(2184.74 516.67) rotate(-180)"/><rect class="cls-4" x="1083.45" y="129.23" width="17.84" height="56.05" rx="8.92" ry="8.92" transform="translate(2184.74 314.5) rotate(180)"/><rect class="cls-4" x="1111.64" y="376.56" width="17.84" height="56.05" rx="8.92" ry="8.92" transform="translate(2241.12 809.17) rotate(-180)"/><rect class="cls-4" x="1111.24" y="477.64" width="17.84" height="56.05" rx="8.92" ry="8.92" transform="translate(2240.33 1011.33) rotate(-180)"/><rect class="cls-4" x="1111.24" y="578.72" width="17.84" height="56.05" rx="8.92" ry="8.92" transform="translate(2240.33 1213.49) rotate(-180)"/><rect class="cls-4" x="1111.24" y="275.48" width="17.84" height="56.05" rx="8.92" ry="8.92" transform="translate(2240.33 607) rotate(-180)"/><rect class="cls-4" x="1111.24" y="174.39" width="17.84" height="56.05" rx="8.92" ry="8.92" transform="translate(2240.33 404.84) rotate(180)"/><rect class="cls-4" x="1111.64" y="73.31" width="17.84" height="56.05" rx="8.92" ry="8.92" transform="translate(2241.12 202.68) rotate(180)"/></g><rect class="cls-1" x="517.37" y="4.12" width="11.66" height="696.62"/><rect class="cls-7" x="540.68" y="228.26" width="26.88" height="284.42" rx="13.44" ry="13.44"/><rect class="cls-7" x="578.89" y="228.26" width="26.88" height="284.42" rx="13.44" ry="13.44"/><rect class="cls-7" x="616.11" y="228.26" width="26.88" height="284.42" rx="13.44" ry="13.44"/><rect class="cls-7" x="655.15" y="228.26" width="26.88" height="284.42" rx="13.44" ry="13.44"/><rect class="cls-7" x="694.11" y="229.01" width="26.88" height="284.42" rx="13.44" ry="13.44"/><rect class="cls-7" x="733.11" y="229.01" width="26.88" height="284.42" rx="13.44" ry="13.44"/><rect class="cls-1" x="771.63" y="2.87" width="11.66" height="700"/><path class="cls-5" d="m2.51,27.66h106.22c4.76,0,8.63,3.87,8.63,8.63v635.51c0,4.76-3.87,8.63-8.63,8.63H2.51V27.66h0Z"/><rect class="cls-2" x="1141.71" y="2.5" width="140.8" height="698.03" transform="translate(2424.22 703.03) rotate(-180)"/><path class="cls-5" d="m1167.66,24.13h106.22c4.76,0,8.63,3.87,8.63,8.63v635.51c0,4.76-3.87,8.63-8.63,8.63h-106.22V24.13h0Z" transform="translate(2450.17 701.03) rotate(-180)"/></g></svg>