<?xml version="1.0" encoding="UTF-8"?><svg id="Layer_1" xmlns="http://www.w3.org/2000/svg" viewBox="0 0 1095.442592947721096 702.442592947722005"><defs><style>.cls-1{stroke-width:10.386969038154179px;}.cls-1,.cls-2,.cls-3,.cls-4,.cls-5,.cls-6,.cls-7,.cls-8,.cls-9{stroke:#000;}.cls-1,.cls-3,.cls-4,.cls-6,.cls-7{fill:none;}.cls-1,.cls-3,.cls-5,.cls-7,.cls-8{stroke-linejoin:round;}.cls-10,.cls-8,.cls-9{fill:#8cc63f;}.cls-2,.cls-11,.cls-5{fill:#ff7bac;}.cls-2,.cls-4,.cls-5,.cls-6,.cls-8,.cls-9{stroke-width:10px;}.cls-2,.cls-4,.cls-6,.cls-9{stroke-miterlimit:10;}.cls-3{stroke-width:9.442592947721227px;}.cls-6{stroke-linecap:round;}.cls-12{font-size:126px;}.cls-12,.cls-13{font-family:Dongle-Bold, Dongle;font-weight:700;}.cls-7{stroke-width:10.522223064757412px;}.cls-13{font-size:83px;}</style></defs><rect class="cls-8" x="105.721296473860093" y="188.721296473861003" width="113" height="143"/><rect class="cls-1" x="45.721296473860093" y="100.721296473861003" width="506" height="372" rx="20.651685393258958" ry="20.651685393258958"/><path class="cls-8" d="m961.33202349801627,249.204868016101045h.385064936758909c35.975408723969736,0,65.182876217135572,29.207467493165836,65.182876217135572,65.182876217135572v48.444534654259542h-.385064942777262c-35.975408720648147,0-65.182876211117218-29.207467490469071-65.182876211117218-65.182876211117161v-48.444534660277952h0Z" transform="translate(28.882150610550298 693.623532661614945) rotate(-38.988637641857729)"/><rect class="cls-2" x="188.530225909699737" y="143.721296522514336" width="59.376463871272392" height="104.466292148349282" rx="29.688202253928587" ry="29.688202253928587" transform="translate(436.436915725165363 391.908885154965333) rotate(180)"/><path class="cls-10" d="m844.121687098860093,420.721296473861003c-12.609375,0-24.8408203125-2.46875-36.3544921875-7.337890625-34.654296875-14.6572265625-57.0458984375-48.439453125-57.0458984375-86.0625,0-51.5009765625,41.8994140625-93.400390625,93.400390625-93.400390625s93.400390625,41.8994140625,93.400390625,93.400390625-41.8994140625,93.400390625-93.400390625,93.400390625Z"/><path d="m844.121687098860093,238.920576259017253c48.7440185546875,0,88.4002685546875,39.65625,88.4002685546875,88.400360107421875s-39.65625,88.400360107421875-88.4002685546875,88.400360107421875c-11.9383544921875,0-23.514404296875-2.3359375-34.4063720703125-6.94287109375-32.8001708984375-13.87322998046875-53.9940185546875-45.84716796875-53.9940185546875-81.457489013671875,0-48.744110107421875,39.65625-88.400360107421875,88.400390625-88.400360107421875m0-10c-54.3450927734375,0-98.400390625,44.05535888671875-98.400390625,98.400360107421875,0,40.758758544921875,24.7811279296875,75.729583740234375,60.0985107421875,90.667572021484375,11.7724609375,4.97930908203125,24.715576171875,7.7327880859375,38.3018798828125,7.7327880859375,54.344970703125,0,98.4002685546875-44.05535888671875,98.4002685546875-98.400360107421875s-44.0552978515625-98.400360107421875-98.4002685546875-98.400360107421875h0Z"/><line class="cls-6" x1="32.721296473860093" y1="550.721580370332958" x2="1062.721296473860093" y2="550.721580398065271"/><circle class="cls-9" cx="742.721296473860093" cy="539.721296473861003" r="29.999999999999996"/><circle class="cls-4" cx="845.777737026920477" cy="335.121661557042444" r="39.000000000000234"/><circle class="cls-4" cx="763.66485592079971" cy="311.320931390679561" r="38.999999999999851"/><circle class="cls-9" cx="946.721296473860093" cy="544.721296473861003" r="29.999999999999996"/><circle cx="775.51647719675293" cy="326.829730208801266" r="8.10843373493984"/><circle cx="829.408043461811303" cy="342.938163943741074" r="8.108433734940292"/><path class="cls-7" d="m903.742835515618026,631.13083583592379l-256.175220623164932-28.335095056983846c-3.953601223489386-.437300946641699-7.209166303451639-2.982938689514413-8.23229431267464-6.437112635760059l-42.604603942803806-143.837048348807002c-1.789996254297876-6.043191438171561,3.837058088751292-11.802677936442706,10.748850479945759-11.001823589582273l258.174647228410322,29.914134681748692c3.962219889181142.459093798232061,7.207472382466221,3.034948745955262,8.198661479309521,6.507525309621997l40.605177337560235,142.258008724043975c1.713693924135441,6.003832545380646-3.859709673946782,11.689686714589698-10.71521764658246,10.931410915718516Z"/><path class="cls-11" d="m434.743757411360093,373.256452723861003c-12.611328125,0-24.8427734375-2.46875-36.35400390625-7.337890625-34.654296875-14.65771484375-57.04638671875-48.43896484375-57.04638671875-86.0625,0-51.5009765625,41.8994140625-93.400390625,93.400390625-93.400390625s93.400390625,41.8994140625,93.400390625,93.400390625-41.8994140625,93.400390625-93.400390625,93.400390625Z"/><path d="m434.743757411360093,191.455763026595378c48.744140625,0,88.400390625,39.65625,88.400390625,88.400360107421875s-39.65625,88.400360107421875-88.400390625,88.400360107421875c-11.93841552734375,0-23.51434326171875-2.335906982421875-34.40631103515625-6.94287109375-32.80010986328125-13.87322998046875-53.9940185546875-45.847198486328125-53.9940185546875-81.457489013671875,0-48.744110107421875,39.65625-88.400360107421875,88.40032958984375-88.400360107421875m0-10c-54.34503173828125,0-98.40032958984375,44.05535888671875-98.40032958984375,98.400360107421875,0,40.758758544921875,24.7811279296875,75.7296142578125,60.0985107421875,90.66754150390625,11.77239990234375,4.9793701171875,24.715576171875,7.732818603515625,38.30181884765625,7.732818603515625,54.34503173828125,0,98.400390625-44.0552978515625,98.400390625-98.400360107421875,0-54.345001220703125-44.05535888671875-98.400360107421875-98.400390625-98.400360107421875h0Z"/><circle cx="370.743768383969837" cy="271.856127934533561" r="8.108433734940096"/><path class="cls-5" d="m540.168709809576058,217.812772897850834h.000064906612806c35.975408717121468,0,65.182876204727222,29.207467487605868,65.182876204727222,65.182876204727279v42.614713495700641h-.000064903733687c-35.975408718710355,0-65.182876207606341-29.207467488895873-65.182876207606341-65.182876207606284v-42.614713492821636h0Z" transform="translate(-43.381304479750725 420.879496315646293) rotate(-38.988637629587757)"/><line class="cls-6" x1="292.923919794253379" y1="227.475018133427511" x2="521.518673153465897" y2="281.967574842026806"/><circle class="cls-2" cx="271.721296473860093" cy="394.721296473861003" r="29.999999999999996"/><circle class="cls-2" cx="474.721296473860093" cy="476.721296473861003" r="29.999999999999996"/><rect class="cls-3" x="4.721296473861003" y="4.721296473861003" width="1085.999999999999091" height="693" rx="24.258426966289338" ry="24.258426966289338"/><text class="cls-13" transform="translate(615.529890223860093 100.361921473861003)"><tspan x="0" y="0">101010101010</tspan><tspan x="0" y="44">101100101001</tspan><tspan x="0" y="88">0101010....</tspan></text><text class="cls-12" transform="translate(313.710066005110093 190.159284755111003)"><tspan x="0" y="0">?</tspan></text></svg>