<svg width="613" height="613" viewBox="0 0 613 613" fill="none" xmlns="http://www.w3.org/2000/svg">
<circle cx="306.5" cy="306.5" r="304.5" fill="#5CA7B1" stroke="#577993" stroke-width="4"/>
<circle cx="306.5" cy="306.5" r="257.346" fill="#5CA7B1" stroke="#577993" stroke-width="4"/>
<circle cx="306.5" cy="306.5" r="210.192" fill="#B15C5C" stroke="#935757" stroke-width="4"/>
<circle cx="306.5" cy="306.5" r="163.038" fill="#B15C5C" stroke="#935757" stroke-width="4"/>
<circle cx="306.5" cy="306.5" r="115.885" fill="#E3D278" stroke="#935757" stroke-width="4"/>
<circle cx="306.5" cy="306.5" r="68.7308" fill="#E3D278"/>
<circle cx="306.5" cy="306.5" r="68.7308" stroke="#B1AA69" stroke-width="4"/>
<circle cx="306.5" cy="306.5" r="68.7308" stroke="#B1AA69" stroke-width="4"/>
<circle cx="306.5" cy="306.5" r="21.5769" fill="#E3D278"/>
<circle cx="306.5" cy="306.5" r="21.5769" stroke="#B1AA69" stroke-width="4" stroke-dasharray="8 8"/>
<circle cx="306.5" cy="306.5" r="21.5769" stroke="#B1AA69" stroke-width="4" stroke-dasharray="8 8"/>
<path d="M349.733 299.455V314H345.784V303.091H345.699L342.517 304.994V301.642L346.097 299.455H349.733ZM359.055 314.398C357.734 314.393 356.593 314.088 355.632 313.482C354.671 312.875 353.93 312.002 353.409 310.861C352.888 309.72 352.63 308.351 352.635 306.756C352.639 305.155 352.9 303.796 353.416 302.679C353.937 301.562 354.675 300.712 355.632 300.129C356.593 299.547 357.734 299.256 359.055 299.256C360.376 299.256 361.517 299.549 362.478 300.136C363.44 300.719 364.181 301.569 364.701 302.686C365.222 303.804 365.48 305.16 365.475 306.756C365.475 308.361 365.215 309.734 364.694 310.875C364.173 312.016 363.432 312.89 362.471 313.496C361.515 314.097 360.376 314.398 359.055 314.398ZM359.055 311.188C359.737 311.188 360.296 310.832 360.731 310.122C361.172 309.407 361.389 308.285 361.385 306.756C361.385 305.757 361.285 304.94 361.086 304.305C360.887 303.671 360.613 303.202 360.262 302.899C359.912 302.591 359.51 302.438 359.055 302.438C358.373 302.438 357.817 302.783 357.386 303.474C356.955 304.166 356.735 305.259 356.725 306.756C356.721 307.774 356.818 308.612 357.017 309.27C357.216 309.923 357.49 310.406 357.841 310.719C358.196 311.031 358.6 311.188 359.055 311.188Z" fill="black" fill-opacity="0.3"/>
<path d="M303.544 299.455L305.93 303.688H306.044L308.458 299.455H312.862L308.515 306.727L313.032 314H308.515L306.044 309.682H305.93L303.458 314H298.97L303.43 306.727L299.112 299.455H303.544Z" fill="black" fill-opacity="0.3"/>
<path d="M399.802 299.256C400.65 299.256 401.452 299.391 402.21 299.661C402.967 299.926 403.637 300.345 404.22 300.918C404.807 301.491 405.266 302.239 405.597 303.162C405.934 304.08 406.104 305.193 406.109 306.5C406.114 307.693 405.964 308.766 405.661 309.717C405.363 310.664 404.935 311.472 404.376 312.139C403.822 312.807 403.154 313.318 402.373 313.673C401.597 314.024 400.73 314.199 399.774 314.199C398.699 314.199 397.754 313.993 396.94 313.581C396.125 313.169 395.477 312.615 394.994 311.919C394.511 311.223 394.229 310.449 394.149 309.597H398.041C398.135 310.037 398.344 310.357 398.666 310.555C398.988 310.75 399.357 310.847 399.774 310.847C400.607 310.847 401.215 310.487 401.599 309.767C401.987 309.043 402.184 308.077 402.188 306.869H402.103C401.919 307.314 401.639 307.696 401.265 308.013C400.891 308.33 400.455 308.574 399.958 308.744C399.461 308.915 398.936 309 398.382 309C397.506 309 396.739 308.804 396.08 308.411C395.422 308.013 394.909 307.471 394.539 306.784C394.17 306.093 393.983 305.307 393.978 304.426C393.973 303.394 394.217 302.49 394.71 301.713C395.202 300.937 395.886 300.333 396.762 299.902C397.638 299.471 398.651 299.256 399.802 299.256ZM399.83 302.239C399.437 302.239 399.087 302.329 398.779 302.509C398.476 302.688 398.237 302.932 398.062 303.24C397.892 303.548 397.809 303.896 397.813 304.284C397.818 304.672 397.906 305.02 398.076 305.328C398.251 305.636 398.488 305.88 398.786 306.06C399.089 306.24 399.437 306.33 399.83 306.33C400.119 306.33 400.387 306.28 400.633 306.18C400.879 306.076 401.092 305.932 401.272 305.747C401.457 305.558 401.599 305.34 401.698 305.094C401.802 304.843 401.852 304.573 401.847 304.284C401.843 303.896 401.753 303.548 401.578 303.24C401.402 302.932 401.163 302.688 400.86 302.509C400.557 302.329 400.214 302.239 399.83 302.239Z" fill="black" fill-opacity="0.3"/>
<path d="M446.999 314.199C445.825 314.199 444.776 314.017 443.853 313.652C442.934 313.287 442.21 312.793 441.68 312.168C441.154 311.543 440.891 310.837 440.891 310.051C440.891 309.45 441.04 308.901 441.339 308.403C441.642 307.906 442.049 307.494 442.56 307.168C443.072 306.836 443.642 306.623 444.272 306.528V306.415C443.443 306.273 442.761 305.906 442.226 305.314C441.696 304.717 441.431 304.014 441.431 303.205C441.431 302.442 441.672 301.765 442.155 301.173C442.638 300.577 443.299 300.108 444.137 299.767C444.975 299.426 445.929 299.256 446.999 299.256C448.069 299.256 449.023 299.429 449.861 299.774C450.699 300.115 451.36 300.584 451.843 301.18C452.326 301.772 452.567 302.447 452.567 303.205C452.567 304.019 452.297 304.722 451.758 305.314C451.218 305.906 450.541 306.273 449.726 306.415V306.528C450.351 306.623 450.92 306.836 451.431 307.168C451.942 307.494 452.349 307.906 452.653 308.403C452.956 308.901 453.107 309.45 453.107 310.051C453.107 310.837 452.842 311.543 452.312 312.168C451.786 312.793 451.062 313.287 450.138 313.652C449.22 314.017 448.173 314.199 446.999 314.199ZM446.999 311.472C447.373 311.472 447.705 311.396 447.993 311.244C448.282 311.093 448.51 310.884 448.675 310.619C448.846 310.349 448.931 310.046 448.931 309.71C448.931 309.374 448.846 309.076 448.675 308.815C448.51 308.555 448.282 308.351 447.993 308.205C447.705 308.053 447.373 307.977 446.999 307.977C446.63 307.977 446.298 308.053 446.005 308.205C445.716 308.351 445.486 308.555 445.316 308.815C445.15 309.076 445.067 309.374 445.067 309.71C445.067 310.046 445.15 310.347 445.316 310.612C445.486 310.877 445.716 311.088 446.005 311.244C446.298 311.396 446.63 311.472 446.999 311.472ZM446.999 305.25C447.331 305.25 447.624 305.181 447.88 305.044C448.135 304.907 448.337 304.717 448.483 304.476C448.63 304.234 448.704 303.962 448.704 303.659C448.704 303.356 448.63 303.089 448.483 302.857C448.337 302.62 448.135 302.435 447.88 302.303C447.624 302.165 447.331 302.097 446.999 302.097C446.672 302.097 446.379 302.165 446.118 302.303C445.863 302.435 445.662 302.62 445.515 302.857C445.368 303.089 445.295 303.356 445.295 303.659C445.295 303.962 445.368 304.234 445.515 304.476C445.662 304.713 445.863 304.902 446.118 305.044C446.379 305.181 446.672 305.25 446.999 305.25Z" fill="black" fill-opacity="0.3"/>
<path d="M489.516 314L495.226 302.693V302.608H488.521V299.455H499.317V302.608L493.578 314H489.516Z" fill="black" fill-opacity="0.3"/>
<path d="M541.2 313.199C540.352 313.199 539.547 313.066 538.785 312.801C538.027 312.531 537.355 312.107 536.768 311.53C536.181 310.952 535.719 310.199 535.383 309.271C535.052 308.343 534.888 307.219 534.893 305.898C534.898 304.719 535.049 303.658 535.347 302.716C535.651 301.774 536.079 300.971 536.633 300.308C537.192 299.645 537.859 299.139 538.636 298.788C539.412 298.433 540.276 298.256 541.228 298.256C542.298 298.256 543.24 298.462 544.055 298.874C544.869 299.286 545.518 299.837 546.001 300.528C546.489 301.215 546.773 301.973 546.853 302.801H542.961C542.871 302.389 542.663 302.089 542.336 301.899C542.014 301.705 541.645 301.608 541.228 301.608C540.4 301.608 539.791 301.968 539.403 302.688C539.019 303.407 538.823 304.354 538.813 305.528H538.899C539.083 305.083 539.363 304.702 539.737 304.385C540.111 304.068 540.546 303.824 541.044 303.653C541.541 303.483 542.066 303.398 542.62 303.398C543.501 303.398 544.27 303.597 544.928 303.994C545.591 304.392 546.107 304.937 546.477 305.628C546.846 306.319 547.028 307.11 547.024 308C547.028 309.042 546.782 309.953 546.285 310.734C545.793 311.516 545.108 312.122 544.232 312.553C543.356 312.983 542.346 313.199 541.2 313.199ZM541.171 310.216C541.564 310.216 541.912 310.126 542.215 309.946C542.523 309.766 542.762 309.52 542.933 309.207C543.108 308.895 543.193 308.54 543.188 308.142C543.193 307.74 543.108 307.384 542.933 307.077C542.762 306.764 542.523 306.518 542.215 306.338C541.912 306.158 541.564 306.068 541.171 306.068C540.883 306.068 540.615 306.12 540.369 306.224C540.127 306.324 539.917 306.468 539.737 306.658C539.557 306.842 539.415 307.062 539.311 307.318C539.211 307.569 539.159 307.844 539.154 308.142C539.159 308.54 539.249 308.895 539.424 309.207C539.599 309.52 539.838 309.766 540.142 309.946C540.445 310.126 540.788 310.216 541.171 310.216Z" fill="black" fill-opacity="0.3"/>
<path d="M588.1 313.199C586.983 313.199 585.991 313.002 585.124 312.609C584.263 312.212 583.583 311.665 583.086 310.969C582.594 310.273 582.343 309.473 582.333 308.568H586.169C586.183 309.07 586.377 309.47 586.751 309.768C587.13 310.067 587.579 310.216 588.1 310.216C588.503 310.216 588.858 310.131 589.166 309.96C589.473 309.785 589.715 309.539 589.89 309.222C590.065 308.904 590.151 308.535 590.146 308.114C590.151 307.688 590.065 307.318 589.89 307.006C589.715 306.688 589.473 306.445 589.166 306.274C588.858 306.099 588.503 306.011 588.1 306.011C587.684 306.011 587.298 306.113 586.943 306.317C586.592 306.516 586.334 306.793 586.169 307.148L582.703 306.466L583.271 298.455H593.044V301.608H586.509L586.225 304.818H586.311C586.538 304.378 586.931 304.013 587.49 303.724C588.048 303.431 588.697 303.284 589.436 303.284C590.302 303.284 591.074 303.485 591.751 303.888C592.433 304.29 592.97 304.847 593.363 305.557C593.761 306.262 593.957 307.077 593.953 308C593.957 309.013 593.716 309.913 593.228 310.699C592.745 311.48 592.066 312.093 591.19 312.538C590.314 312.979 589.284 313.199 588.1 313.199Z" fill="black" fill-opacity="0.3"/>
<circle cx="248.5" cy="376.5" r="11.5" fill="white" stroke="#ADADAD" stroke-width="2"/>
<circle cx="208.5" cy="411.5" r="11.5" fill="white" stroke="#ADADAD" stroke-width="2"/>
<circle cx="221.5" cy="471.5" r="11.5" fill="white" stroke="#ADADAD" stroke-width="2"/>
<circle cx="94.5" cy="491.5" r="11.5" fill="white" stroke="#ADADAD" stroke-width="2"/>
<circle cx="69.5" cy="578.5" r="11.5" fill="white" stroke="#ADADAD" stroke-width="2"/>
<circle cx="265.5" cy="435.5" r="11.5" fill="white" stroke="#ADADAD" stroke-width="2"/>
<circle cx="351.5" cy="222.5" r="11.5" fill="white" stroke="#ADADAD" stroke-width="2"/>
<circle cx="397.5" cy="200.5" r="11.5" fill="white" stroke="#ADADAD" stroke-width="2"/>
<circle cx="221.5" cy="470.5" r="11.5" fill="white" stroke="#ADADAD" stroke-width="2"/>
<circle cx="393.5" cy="139.5" r="11.5" fill="white" stroke="#ADADAD" stroke-width="2"/>
<circle cx="294.5" cy="117.5" r="11.5" fill="white" stroke="#ADADAD" stroke-width="2"/>
<circle cx="381.5" cy="247.5" r="11.5" fill="white" stroke="#ADADAD" stroke-width="2"/>
<circle cx="389.5" cy="301.5" r="11.5" fill="white" stroke="#ADADAD" stroke-width="2"/>
<circle cx="436.5" cy="327.5" r="11.5" fill="white" stroke="#ADADAD" stroke-width="2"/>
<circle cx="427.5" cy="247.5" r="11.5" fill="white" stroke="#ADADAD" stroke-width="2"/>
<circle cx="440.5" cy="213.5" r="11.5" fill="white" stroke="#ADADAD" stroke-width="2"/>
<circle cx="444.5" cy="285.5" r="11.5" fill="white" stroke="#ADADAD" stroke-width="2"/>
<circle cx="397.5" cy="273.5" r="11.5" fill="white" stroke="#ADADAD" stroke-width="2"/>
<circle cx="518.5" cy="53.5" r="11.5" fill="white" stroke="#ADADAD" stroke-width="2"/>
<circle cx="436.5" cy="327.5" r="11.5" fill="white" stroke="#ADADAD" stroke-width="2"/>
<circle cx="427.5" cy="247.5" r="11.5" fill="white" stroke="#ADADAD" stroke-width="2"/>
<circle cx="506.5" cy="113.5" r="11.5" fill="white" stroke="#ADADAD" stroke-width="2"/>
<circle cx="481.5" cy="362.5" r="11.5" fill="white" stroke="#ADADAD" stroke-width="2"/>
<circle cx="223.5" cy="256.5" r="11.5" fill="white" stroke="#ADADAD" stroke-width="2"/>
<circle cx="358.5" cy="537.5" r="11.5" fill="white" stroke="#ADADAD" stroke-width="2"/>
<circle cx="444.5" cy="277.5" r="11.5" fill="white" stroke="#ADADAD" stroke-width="2"/>
<circle cx="389.5" cy="345.5" r="11.5" fill="white" stroke="#ADADAD" stroke-width="2"/>
<circle cx="518.5" cy="579.5" r="11.5" fill="white" stroke="#ADADAD" stroke-width="2"/>
<circle cx="434.5" cy="447.5" r="11.5" fill="white" stroke="#ADADAD" stroke-width="2"/>
<circle cx="333.5" cy="348.5" r="11.5" fill="white" stroke="#ADADAD" stroke-width="2"/>
<circle cx="217.5" cy="300.5" r="11.5" fill="white" stroke="#ADADAD" stroke-width="2"/>
<circle cx="182.5" cy="381.5" r="11.5" fill="white" stroke="#ADADAD" stroke-width="2"/>
<circle cx="262.5" cy="325.5" r="11.5" fill="white" stroke="#ADADAD" stroke-width="2"/>
<circle cx="73.5" cy="544.5" r="11.5" fill="white" stroke="#ADADAD" stroke-width="2"/>
<circle cx="157.5" cy="432.5" r="11.5" fill="white" stroke="#ADADAD" stroke-width="2"/>
<circle cx="223.5" cy="255.5" r="11.5" fill="white" stroke="#ADADAD" stroke-width="2"/>
</svg>
