<svg width="1192" height="265" viewBox="0 0 1192 265" fill="none" xmlns="http://www.w3.org/2000/svg">
<path d="M20 21H1170V246H20V21Z" fill="#4F4D4D"/>
<path d="M595.5 206C636.094 206 669 173.318 669 133C669 129.62 663.899 129.058 662.142 131.956C658.396 138.12 653.286 143.356 647.2 147.268C641.114 151.179 634.212 153.664 627.016 154.534C619.819 155.404 612.518 154.636 605.665 152.289C598.812 149.941 592.587 146.075 587.461 140.984C582.335 135.893 578.443 129.71 576.079 122.904C573.716 116.097 572.942 108.846 573.818 101.699C574.694 94.5517 577.196 87.6962 581.135 81.6517C585.073 75.6072 590.345 70.5321 596.551 66.8109C599.469 65.0589 598.903 60 595.5 60C554.906 60 522 92.6821 522 133C522 173.318 554.906 206 595.5 206Z" fill="#E4B772"/>
<path d="M31.6925 201.286L23.0262 218.28L3.63647 221.013C0.159322 221.501 -1.23419 225.647 1.2874 228.021L15.3154 241.241L11.9976 259.916C11.4003 263.292 15.0766 265.82 18.1556 264.241L35.5015 255.424L52.8474 264.241C55.9264 265.807 59.6026 263.292 59.0054 259.916L55.6875 241.241L69.7156 228.021C72.2372 225.647 70.8436 221.501 67.3665 221.013L47.9767 218.28L39.3104 201.286C37.7576 198.257 33.2586 198.219 31.6925 201.286Z" fill="#F7DB78"/>
<path d="M31.6925 201.286L23.0262 218.28L3.63647 221.013C0.159322 221.501 -1.23419 225.647 1.2874 228.021L15.3154 241.241L11.9976 259.916C11.4003 263.292 15.0766 265.82 18.1556 264.241L35.5015 255.424L52.8474 264.241C55.9264 265.807 59.6026 263.292 59.0054 259.916L55.6875 241.241L69.7156 228.021C72.2372 225.647 70.8436 221.501 67.3665 221.013L47.9767 218.28L39.3104 201.286C37.7576 198.257 33.2586 198.219 31.6925 201.286Z" fill="#F7DB78"/>
<path d="M31.6925 201.286L23.0262 218.28L3.63647 221.013C0.159322 221.501 -1.23419 225.647 1.2874 228.021L15.3154 241.241L11.9976 259.916C11.4003 263.292 15.0766 265.82 18.1556 264.241L35.5015 255.424L52.8474 264.241C55.9264 265.807 59.6026 263.292 59.0054 259.916L55.6875 241.241L69.7156 228.021C72.2372 225.647 70.8436 221.501 67.3665 221.013L47.9767 218.28L39.3104 201.286C37.7576 198.257 33.2586 198.219 31.6925 201.286Z" fill="#F7DB78"/>
<path d="M1147.11 2.58706L1137.23 21.8164L1115.14 24.91C1111.18 25.4619 1109.59 30.153 1112.47 32.8399L1128.45 47.7993L1124.67 68.9313C1123.99 72.7511 1128.18 75.6122 1131.68 73.8258L1151.44 63.848L1171.21 73.8258C1174.71 75.5977 1178.9 72.7511 1178.22 68.9313L1174.44 47.7993L1190.42 32.8399C1193.3 30.153 1191.71 25.4619 1187.75 24.91L1165.66 21.8164L1155.78 2.58706C1154.02 -0.840534 1148.89 -0.884105 1147.11 2.58706Z" fill="#F7DB78"/>
<path d="M1147.11 2.58706L1137.23 21.8164L1115.14 24.91C1111.18 25.4619 1109.59 30.153 1112.47 32.8399L1128.45 47.7993L1124.67 68.9313C1123.99 72.7511 1128.18 75.6122 1131.68 73.8258L1151.44 63.848L1171.21 73.8258C1174.71 75.5977 1178.9 72.7511 1178.22 68.9313L1174.44 47.7993L1190.42 32.8399C1193.3 30.153 1191.71 25.4619 1187.75 24.91L1165.66 21.8164L1155.78 2.58706C1154.02 -0.840534 1148.89 -0.884105 1147.11 2.58706Z" fill="#F7DB78"/>
<path d="M1147.11 2.58706L1137.23 21.8164L1115.14 24.91C1111.18 25.4619 1109.59 30.153 1112.47 32.8399L1128.45 47.7993L1124.67 68.9313C1123.99 72.7511 1128.18 75.6122 1131.68 73.8258L1151.44 63.848L1171.21 73.8258C1174.71 75.5977 1178.9 72.7511 1178.22 68.9313L1174.44 47.7993L1190.42 32.8399C1193.3 30.153 1191.71 25.4619 1187.75 24.91L1165.66 21.8164L1155.78 2.58706C1154.02 -0.840534 1148.89 -0.884105 1147.11 2.58706Z" fill="#F7DB78"/>
<path d="M200.146 160.08L194.88 170.589L183.099 172.28C180.986 172.581 180.14 175.145 181.672 176.614L190.195 184.789L188.179 196.338C187.816 198.425 190.05 199.989 191.921 199.013L202.46 193.56L212.999 199.013C214.87 199.981 217.104 198.425 216.741 196.338L214.725 184.789L223.248 176.614C224.78 175.145 223.934 172.581 221.821 172.28L210.04 170.589L204.774 160.08C203.831 158.207 201.097 158.183 200.146 160.08Z" fill="#F7DB78"/>
<path d="M200.146 160.08L194.88 170.589L183.099 172.28C180.986 172.581 180.14 175.145 181.672 176.614L190.195 184.789L188.179 196.338C187.816 198.425 190.05 199.989 191.921 199.013L202.46 193.56L212.999 199.013C214.87 199.981 217.104 198.425 216.741 196.338L214.725 184.789L223.248 176.614C224.78 175.145 223.934 172.581 221.821 172.28L210.04 170.589L204.774 160.08C203.831 158.207 201.097 158.183 200.146 160.08Z" fill="#F7DB78"/>
<path d="M200.146 160.08L194.88 170.589L183.099 172.28C180.986 172.581 180.14 175.145 181.672 176.614L190.195 184.789L188.179 196.338C187.816 198.425 190.05 199.989 191.921 199.013L202.46 193.56L212.999 199.013C214.87 199.981 217.104 198.425 216.741 196.338L214.725 184.789L223.248 176.614C224.78 175.145 223.934 172.581 221.821 172.28L210.04 170.589L204.774 160.08C203.831 158.207 201.097 158.183 200.146 160.08Z" fill="#F7DB78"/>
<path d="M118.454 68.3236L113.408 78.1619L102.117 79.7446C100.093 80.027 99.2814 82.4271 100.75 83.8018L108.918 91.4555L106.986 102.267C106.638 104.221 108.779 105.685 110.572 104.771L120.672 99.6664L130.772 104.771C132.565 105.678 134.705 104.221 134.358 102.267L132.426 91.4555L140.594 83.8018C142.062 82.4271 141.251 80.027 139.226 79.7446L127.936 78.1619L122.89 68.3236C121.985 66.57 119.366 66.5477 118.454 68.3236Z" fill="#F7DB78"/>
<path d="M118.454 68.3236L113.408 78.1619L102.117 79.7446C100.093 80.027 99.2814 82.4271 100.75 83.8018L108.918 91.4555L106.986 102.267C106.638 104.221 108.779 105.685 110.572 104.771L120.672 99.6664L130.772 104.771C132.565 105.678 134.705 104.221 134.358 102.267L132.426 91.4555L140.594 83.8018C142.062 82.4271 141.251 80.027 139.226 79.7446L127.936 78.1619L122.89 68.3236C121.985 66.57 119.366 66.5477 118.454 68.3236Z" fill="#F7DB78"/>
<path d="M118.454 68.3236L113.408 78.1619L102.117 79.7446C100.093 80.027 99.2814 82.4271 100.75 83.8018L108.918 91.4555L106.986 102.267C106.638 104.221 108.779 105.685 110.572 104.771L120.672 99.6664L130.772 104.771C132.565 105.678 134.705 104.221 134.358 102.267L132.426 91.4555L140.594 83.8018C142.062 82.4271 141.251 80.027 139.226 79.7446L127.936 78.1619L122.89 68.3236C121.985 66.57 119.366 66.5477 118.454 68.3236Z" fill="#E4B772"/>
<path d="M386.454 169.324L381.408 179.162L370.117 180.745C368.093 181.027 367.281 183.427 368.75 184.802L376.918 192.455L374.986 203.267C374.638 205.221 376.779 206.685 378.572 205.771L388.672 200.666L398.772 205.771C400.565 206.678 402.705 205.221 402.358 203.267L400.426 192.455L408.594 184.802C410.062 183.427 409.251 181.027 407.226 180.745L395.936 179.162L390.89 169.324C389.985 167.57 387.366 167.548 386.454 169.324Z" fill="#F7DB78"/>
<path d="M386.454 169.324L381.408 179.162L370.117 180.745C368.093 181.027 367.281 183.427 368.75 184.802L376.918 192.455L374.986 203.267C374.638 205.221 376.779 206.685 378.572 205.771L388.672 200.666L398.772 205.771C400.565 206.678 402.705 205.221 402.358 203.267L400.426 192.455L408.594 184.802C410.062 183.427 409.251 181.027 407.226 180.745L395.936 179.162L390.89 169.324C389.985 167.57 387.366 167.548 386.454 169.324Z" fill="#F7DB78"/>
<path d="M386.454 169.324L381.408 179.162L370.117 180.745C368.093 181.027 367.281 183.427 368.75 184.802L376.918 192.455L374.986 203.267C374.638 205.221 376.779 206.685 378.572 205.771L388.672 200.666L398.772 205.771C400.565 206.678 402.705 205.221 402.358 203.267L400.426 192.455L408.594 184.802C410.062 183.427 409.251 181.027 407.226 180.745L395.936 179.162L390.89 169.324C389.985 167.57 387.366 167.548 386.454 169.324Z" fill="#F7DB78"/>
<path d="M950.803 57.3236L945.757 67.1619L934.467 68.7446C932.442 69.027 931.631 71.4271 933.099 72.8018L941.267 80.4555L939.335 91.2672C938.987 93.2215 941.128 94.6853 942.921 93.7713L953.021 88.6664L963.121 93.7713C964.914 94.6779 967.055 93.2215 966.707 91.2672L964.775 80.4555L972.943 72.8018C974.411 71.4271 973.6 69.027 971.575 68.7446L960.285 67.1619L955.239 57.3236C954.335 55.57 951.715 55.5477 950.803 57.3236Z" fill="#F7DB78"/>
<path d="M950.803 57.3236L945.757 67.1619L934.467 68.7446C932.442 69.027 931.631 71.4271 933.099 72.8018L941.267 80.4555L939.335 91.2672C938.987 93.2215 941.128 94.6853 942.921 93.7713L953.021 88.6664L963.121 93.7713C964.914 94.6779 967.055 93.2215 966.707 91.2672L964.775 80.4555L972.943 72.8018C974.411 71.4271 973.6 69.027 971.575 68.7446L960.285 67.1619L955.239 57.3236C954.335 55.57 951.715 55.5477 950.803 57.3236Z" fill="#F7DB78"/>
<path d="M950.803 57.3236L945.757 67.1619L934.467 68.7446C932.442 69.027 931.631 71.4271 933.099 72.8018L941.267 80.4555L939.335 91.2672C938.987 93.2215 941.128 94.6853 942.921 93.7713L953.021 88.6664L963.121 93.7713C964.914 94.6779 967.055 93.2215 966.707 91.2672L964.775 80.4555L972.943 72.8018C974.411 71.4271 973.6 69.027 971.575 68.7446L960.285 67.1619L955.239 57.3236C954.335 55.57 951.715 55.5477 950.803 57.3236Z" fill="#F7DB78"/>
<path d="M1008.32 164.556L1003.28 174.394L991.988 175.977C989.963 176.259 989.152 178.659 990.62 180.034L998.788 187.687L996.857 198.499C996.509 200.453 998.649 201.917 1000.44 201.003L1010.54 195.898L1020.64 201.003C1022.44 201.91 1024.58 200.453 1024.23 198.499L1022.3 187.687L1030.46 180.034C1031.93 178.659 1031.12 176.259 1029.1 175.977L1017.81 174.394L1012.76 164.556C1011.86 162.802 1009.24 162.78 1008.32 164.556Z" fill="#F7DB78"/>
<path d="M1008.32 164.556L1003.28 174.394L991.988 175.977C989.963 176.259 989.152 178.659 990.62 180.034L998.788 187.687L996.857 198.499C996.509 200.453 998.649 201.917 1000.44 201.003L1010.54 195.898L1020.64 201.003C1022.44 201.91 1024.58 200.453 1024.23 198.499L1022.3 187.687L1030.46 180.034C1031.93 178.659 1031.12 176.259 1029.1 175.977L1017.81 174.394L1012.76 164.556C1011.86 162.802 1009.24 162.78 1008.32 164.556Z" fill="#F7DB78"/>
<path d="M1008.32 164.556L1003.28 174.394L991.988 175.977C989.963 176.259 989.152 178.659 990.62 180.034L998.788 187.687L996.857 198.499C996.509 200.453 998.649 201.917 1000.44 201.003L1010.54 195.898L1020.64 201.003C1022.44 201.91 1024.58 200.453 1024.23 198.499L1022.3 187.687L1030.46 180.034C1031.93 178.659 1031.12 176.259 1029.1 175.977L1017.81 174.394L1012.76 164.556C1011.86 162.802 1009.24 162.78 1008.32 164.556Z" fill="#E4B772"/>
<path d="M853.736 156.772L848.69 166.611L837.399 168.193C835.375 168.476 834.563 170.876 836.032 172.251L844.2 179.904L842.268 190.716C841.92 192.67 844.061 194.134 845.854 193.22L855.954 188.115L866.054 193.22C867.847 194.127 869.987 192.67 869.64 190.716L867.708 179.904L875.876 172.251C877.344 170.876 876.533 168.476 874.508 168.193L863.218 166.611L858.172 156.772C857.267 155.019 854.648 154.997 853.736 156.772Z" fill="#F7DB78"/>
<path d="M853.736 156.772L848.69 166.611L837.399 168.193C835.375 168.476 834.563 170.876 836.032 172.251L844.2 179.904L842.268 190.716C841.92 192.67 844.061 194.134 845.854 193.22L855.954 188.115L866.054 193.22C867.847 194.127 869.987 192.67 869.64 190.716L867.708 179.904L875.876 172.251C877.344 170.876 876.533 168.476 874.508 168.193L863.218 166.611L858.172 156.772C857.267 155.019 854.648 154.997 853.736 156.772Z" fill="#F7DB78"/>
<path d="M853.736 156.772L848.69 166.611L837.399 168.193C835.375 168.476 834.563 170.876 836.032 172.251L844.2 179.904L842.268 190.716C841.92 192.67 844.061 194.134 845.854 193.22L855.954 188.115L866.054 193.22C867.847 194.127 869.987 192.67 869.64 190.716L867.708 179.904L875.876 172.251C877.344 170.876 876.533 168.476 874.508 168.193L863.218 166.611L858.172 156.772C857.267 155.019 854.648 154.997 853.736 156.772Z" fill="#F7DB78"/>
<path d="M319.454 68.3236L314.408 78.1619L303.117 79.7446C301.093 80.027 300.281 82.4271 301.75 83.8018L309.918 91.4555L307.986 102.267C307.638 104.221 309.779 105.685 311.572 104.771L321.672 99.6664L331.772 104.771C333.565 105.678 335.705 104.221 335.358 102.267L333.426 91.4555L341.594 83.8018C343.062 82.4271 342.251 80.027 340.226 79.7446L328.936 78.1619L323.89 68.3236C322.985 66.57 320.366 66.5477 319.454 68.3236Z" fill="#F7DB78"/>
<path d="M319.454 68.3236L314.408 78.1619L303.117 79.7446C301.093 80.027 300.281 82.4271 301.75 83.8018L309.918 91.4555L307.986 102.267C307.638 104.221 309.779 105.685 311.572 104.771L321.672 99.6664L331.772 104.771C333.565 105.678 335.705 104.221 335.358 102.267L333.426 91.4555L341.594 83.8018C343.062 82.4271 342.251 80.027 340.226 79.7446L328.936 78.1619L323.89 68.3236C322.985 66.57 320.366 66.5477 319.454 68.3236Z" fill="#F7DB78"/>
<path d="M319.454 68.3236L314.408 78.1619L303.117 79.7446C301.093 80.027 300.281 82.4271 301.75 83.8018L309.918 91.4555L307.986 102.267C307.638 104.221 309.779 105.685 311.572 104.771L321.672 99.6664L331.772 104.771C333.565 105.678 335.705 104.221 335.358 102.267L333.426 91.4555L341.594 83.8018C343.062 82.4271 342.251 80.027 340.226 79.7446L328.936 78.1619L323.89 68.3236C322.985 66.57 320.366 66.5477 319.454 68.3236Z" fill="#E4B772"/>
<path d="M767.454 77.2134L762.408 87.0517L751.117 88.6344C749.093 88.9168 748.281 91.3169 749.75 92.6916L757.918 100.345L755.986 111.157C755.638 113.111 757.779 114.575 759.572 113.661L769.672 108.556L779.772 113.661C781.565 114.568 783.705 113.111 783.358 111.157L781.426 100.345L789.594 92.6916C791.062 91.3169 790.251 88.9168 788.226 88.6344L776.936 87.0517L771.89 77.2134C770.985 75.4597 768.366 75.4374 767.454 77.2134Z" fill="#F7DB78"/>
<path d="M767.454 77.2134L762.408 87.0517L751.117 88.6344C749.093 88.9168 748.281 91.3169 749.75 92.6916L757.918 100.345L755.986 111.157C755.638 113.111 757.779 114.575 759.572 113.661L769.672 108.556L779.772 113.661C781.565 114.568 783.705 113.111 783.358 111.157L781.426 100.345L789.594 92.6916C791.062 91.3169 790.251 88.9168 788.226 88.6344L776.936 87.0517L771.89 77.2134C770.985 75.4597 768.366 75.4374 767.454 77.2134Z" fill="#F7DB78"/>
<path d="M767.454 77.2134L762.408 87.0517L751.117 88.6344C749.093 88.9168 748.281 91.3169 749.75 92.6916L757.918 100.345L755.986 111.157C755.638 113.111 757.779 114.575 759.572 113.661L769.672 108.556L779.772 113.661C781.565 114.568 783.705 113.111 783.358 111.157L781.426 100.345L789.594 92.6916C791.062 91.3169 790.251 88.9168 788.226 88.6344L776.936 87.0517L771.89 77.2134C770.985 75.4597 768.366 75.4374 767.454 77.2134Z" fill="#E4B772"/>
</svg>
