<svg width="1196" height="266" viewBox="0 0 1196 266" fill="none" xmlns="http://www.w3.org/2000/svg">
<path d="M25 25H1145C1161.57 25 1175 38.4315 1175 55V250H25V25Z" fill="#A6DDE0"/>
<path d="M94.9792 120.667C88.091 120.667 82.205 118.479 77.3212 114.104C72.4374 109.729 69.997 104.382 70 98.0625C70 92.6458 71.7788 87.8194 75.3365 83.5833C78.8941 79.3472 83.5493 76.6389 89.3021 75.4583C91.1944 69.0694 94.9792 63.8958 100.656 59.9375C106.333 55.9792 112.767 54 119.958 54C128.815 54 136.328 56.8306 142.499 62.4917C148.669 68.1528 151.753 75.0444 151.75 83.1667C156.973 83.7222 161.307 85.7889 164.753 89.3667C168.198 92.9444 169.92 97.1278 169.917 101.917C169.917 107.125 167.929 111.553 163.953 115.2C159.978 118.847 155.153 120.669 149.479 120.667H94.9792Z" fill="white"/>
<path d="M388.156 193.232C382.838 193.232 378.294 191.52 374.523 188.095C370.753 184.671 368.869 180.485 368.871 175.539C368.871 171.299 370.244 167.521 372.991 164.205C375.738 160.889 379.332 158.769 383.773 157.845C385.234 152.845 388.156 148.795 392.539 145.697C396.923 142.598 401.89 141.049 407.442 141.049C414.279 141.049 420.08 143.265 424.844 147.696C429.608 152.127 431.989 157.521 431.987 163.879C436.019 164.314 439.366 165.932 442.026 168.732C444.686 171.533 446.015 174.807 446.013 178.556C446.013 182.632 444.478 186.098 441.409 188.953C438.339 191.808 434.614 193.234 430.234 193.232H388.156Z" fill="white"/>
<path d="M750.737 123.477C745.311 123.477 740.675 121.73 736.828 118.235C732.981 114.741 731.059 110.47 731.062 105.423C731.062 101.096 732.463 97.2412 735.265 93.8577C738.067 90.4743 741.734 88.3111 746.265 87.3681C747.756 82.2652 750.737 78.1329 755.208 74.9713C759.68 71.8097 764.748 70.2289 770.412 70.2289C777.387 70.2289 783.305 72.4897 788.166 77.0114C793.026 81.533 795.455 87.0375 795.453 93.5249C799.567 93.9687 802.98 95.6194 805.694 98.477C808.408 101.335 809.764 104.676 809.762 108.501C809.762 112.661 808.196 116.198 805.065 119.111C801.934 122.024 798.133 123.479 793.664 123.477H750.737Z" fill="white"/>
<path d="M837.936 210.751C833.531 210.751 829.767 209.335 826.644 206.505C823.521 203.675 821.96 200.215 821.962 196.127C821.962 192.622 823.099 189.5 825.374 186.759C827.65 184.019 830.626 182.266 834.305 181.503C835.515 177.369 837.936 174.022 841.566 171.461C845.197 168.9 849.311 167.62 853.91 167.62C859.573 167.62 864.378 169.451 868.324 173.114C872.27 176.776 874.242 181.235 874.24 186.49C877.58 186.849 880.351 188.186 882.555 190.501C884.758 192.815 885.859 195.522 885.857 198.62C885.857 201.99 884.586 204.854 882.044 207.214C879.501 209.574 876.416 210.753 872.788 210.751H837.936Z" fill="white"/>
<g clip-path="url(#clip0_3_13)">
<path d="M923.936 102.751C919.531 102.751 915.767 101.335 912.644 98.505C909.521 95.6746 907.96 92.2151 907.962 88.1266C907.962 84.6222 909.099 81.4997 911.374 78.7591C913.65 76.0185 916.626 74.2663 920.305 73.5025C921.515 69.3692 923.936 66.022 927.566 63.4611C931.197 60.9002 935.311 59.6198 939.91 59.6198C945.573 59.6198 950.378 61.451 954.324 65.1136C958.27 68.7761 960.242 73.2348 960.24 78.4896C963.58 78.849 966.351 80.186 968.555 82.5007C970.758 84.8154 971.859 87.5219 971.857 90.6201C971.857 93.9898 970.586 96.8544 968.044 99.214C965.501 101.574 962.416 102.753 958.788 102.751H923.936Z" fill="white"/>
</g>
<path d="M318.258 114.025C314.175 114.025 310.687 112.715 307.792 110.094C304.897 107.473 303.451 104.27 303.453 100.485C303.453 97.2398 304.507 94.3486 306.616 91.811C308.724 89.2734 311.483 87.651 314.893 86.9438C316.015 83.1166 318.258 80.0174 321.623 77.6462C324.987 75.275 328.801 74.0894 333.063 74.0894C338.312 74.0894 342.765 75.785 346.422 79.1762C350.079 82.5675 351.907 86.6959 351.905 91.5614C355.001 91.8942 357.57 93.1322 359.612 95.2755C361.654 97.4187 362.674 99.9247 362.673 102.793C362.673 105.913 361.495 108.566 359.138 110.751C356.782 112.936 353.922 114.027 350.56 114.025H318.258Z" fill="white"/>
<path d="M1045.68 215.248C1040.25 215.248 1035.61 213.501 1031.77 210.007C1027.92 206.512 1026 202.241 1026 197.194C1026 192.867 1027.4 189.012 1030.2 185.629C1033.01 182.245 1036.67 180.082 1041.2 179.139C1042.69 174.036 1045.68 169.904 1050.15 166.742C1054.62 163.581 1059.69 162 1065.35 162C1072.33 162 1078.24 164.261 1083.1 168.782C1087.96 173.304 1090.39 178.809 1090.39 185.296C1094.5 185.74 1097.92 187.39 1100.63 190.248C1103.35 193.106 1104.7 196.447 1104.7 200.272C1104.7 204.432 1103.13 207.969 1100 210.882C1096.87 213.795 1093.07 215.25 1088.6 215.248H1045.68Z" fill="white"/>
<path d="M1110.42 76C1102.58 76 1095.88 73.5062 1090.33 68.5187C1084.77 63.5312 1082 57.4354 1082 50.2312C1082 44.0562 1084.02 38.5542 1088.07 33.725C1092.12 28.8958 1097.41 25.8083 1103.96 24.4625C1106.11 17.1792 1110.42 11.2813 1116.88 6.76875C1123.33 2.25625 1130.65 0 1138.83 0C1148.91 0 1157.46 3.22683 1164.48 9.6805C1171.5 16.1342 1175 23.9907 1175 33.25C1180.94 33.8833 1185.87 36.2393 1189.79 40.318C1193.71 44.3967 1195.67 49.1657 1195.67 54.625C1195.67 60.5625 1193.41 65.6102 1188.88 69.768C1184.36 73.9258 1178.87 76.0032 1172.42 76H1110.42Z" fill="white"/>
<g clip-path="url(#clip1_3_13)">
<path d="M31.3763 265.365C24.9301 265.365 19.4218 263.286 14.8514 259.128C10.281 254.969 7.99717 249.887 8 243.88C8 238.732 9.66468 234.145 12.994 230.118C16.3234 226.092 20.6799 223.518 26.0635 222.396C27.8344 216.323 31.3763 211.406 36.6891 207.643C42.0019 203.881 48.023 202 54.7526 202C63.0405 202 70.0718 204.69 75.8465 210.071C81.6211 215.452 84.507 222.002 84.5042 229.722C89.392 230.25 93.4481 232.215 96.6726 235.615C99.8971 239.016 101.508 242.992 101.505 247.544C101.505 252.494 99.6449 256.703 95.9246 260.169C92.2042 263.636 87.689 265.368 82.3791 265.365H31.3763Z" fill="white"/>
</g>
<g clip-path="url(#clip2_3_13)">
<path d="M550.084 77.5367L543.005 61.1497C542.38 59.701 542.4 58.0809 543.061 56.6459C543.722 55.2108 544.971 54.0784 546.532 53.4976C548.093 52.9169 549.838 52.9354 551.385 53.5492C552.931 54.1629 554.151 55.3216 554.777 56.7703L561.855 73.1573C562.481 74.606 562.461 76.226 561.8 77.6611C561.139 79.0961 559.89 80.2286 558.329 80.8093C556.768 81.3901 555.022 81.3715 553.476 80.7578C551.93 80.144 550.71 78.9854 550.084 77.5367ZM563.048 91.734C553.735 95.1986 545.739 101.148 540.069 108.831C534.4 116.513 531.313 125.583 531.198 134.894C531.084 144.205 533.946 153.338 539.425 161.139C544.903 168.94 552.751 175.058 561.976 178.719C571.201 182.381 581.388 183.421 591.251 181.709C601.113 179.997 610.206 175.61 617.382 169.101C624.557 162.593 629.491 154.256 631.561 145.145C633.631 136.034 632.743 126.558 629.01 117.915C623.992 106.334 614.229 97.074 601.862 92.1657C589.496 87.2575 575.537 87.1022 563.048 91.734ZM513.467 114.665C515.014 115.28 516.761 115.298 518.323 114.717C519.884 114.136 521.134 113.003 521.795 111.567C522.457 110.131 522.477 108.51 521.851 107.061C521.225 105.611 520.004 104.452 518.457 103.838L501.966 97.2926C500.419 96.6785 498.672 96.6599 497.111 97.241C495.549 97.8221 494.3 98.9552 493.638 100.391C492.976 101.827 492.956 103.448 493.582 104.897C494.208 106.347 495.429 107.506 496.976 108.12L513.467 114.665ZM547.88 194.334L540.827 209.638C540.165 211.073 540.145 212.694 540.771 214.144C541.398 215.593 542.618 216.753 544.166 217.367C545.713 217.981 547.459 217.999 549.021 217.418C550.583 216.837 551.832 215.704 552.494 214.268L559.547 198.964C559.874 198.253 560.048 197.489 560.057 196.716C560.067 195.943 559.912 195.176 559.602 194.458C559.292 193.74 558.833 193.086 558.25 192.533C557.668 191.98 556.974 191.539 556.208 191.235C555.442 190.931 554.619 190.77 553.786 190.761C552.953 190.752 552.126 190.896 551.352 191.184C550.579 191.471 549.874 191.898 549.278 192.438C548.683 192.978 548.207 193.623 547.88 194.334ZM612.494 79.6786C613.267 79.3916 613.972 78.9659 614.568 78.4259C615.164 77.8859 615.64 77.2423 615.968 76.5317L623.02 61.2276C623.682 59.7918 623.702 58.1708 623.076 56.7213C622.45 55.2718 621.229 54.1125 619.682 53.4984C618.135 52.8843 616.388 52.8658 614.826 53.4469C613.264 54.0279 612.015 55.161 611.353 56.5968L604.301 71.9009C603.807 72.9714 603.666 74.1539 603.896 75.2987C604.127 76.4435 604.718 77.4991 605.595 78.3319C606.472 79.1647 607.596 79.7371 608.824 79.9769C610.052 80.2166 611.329 80.1128 612.494 79.6786ZM650.38 156.2C648.833 155.586 647.087 155.567 645.525 156.148C643.963 156.729 642.714 157.862 642.052 159.298C641.39 160.734 641.37 162.355 641.996 163.805C642.622 165.254 643.843 166.413 645.391 167.027L661.881 173.573C662.647 173.877 663.47 174.038 664.303 174.047C665.136 174.055 665.963 173.912 666.737 173.624C667.51 173.337 668.215 172.91 668.811 172.37C669.406 171.829 669.882 171.185 670.209 170.474C670.537 169.763 670.711 168.999 670.72 168.226C670.73 167.453 670.575 166.686 670.265 165.968C669.955 165.25 669.496 164.596 668.913 164.043C668.331 163.49 667.637 163.049 666.871 162.745L650.38 156.2ZM523.066 157.33C522.44 155.881 521.22 154.722 519.674 154.109C518.127 153.495 516.382 153.476 514.821 154.057L497.163 160.626C495.602 161.207 494.354 162.339 493.693 163.774C493.031 165.209 493.011 166.83 493.637 168.278C494.263 169.727 495.483 170.886 497.029 171.499C498.576 172.113 500.321 172.132 501.882 171.551L519.54 164.982C521.101 164.401 522.349 163.269 523.01 161.833C523.672 160.398 523.692 158.778 523.066 157.33ZM605.518 190.056C603.957 190.637 602.709 191.769 602.047 193.204C601.386 194.639 601.366 196.259 601.992 197.708L609.07 214.095C609.696 215.544 610.916 216.702 612.462 217.316C614.009 217.93 615.754 217.948 617.315 217.368C618.876 216.787 620.125 215.654 620.786 214.219C621.448 212.784 621.468 211.164 620.842 209.716L613.763 193.329C613.138 191.88 611.917 190.721 610.371 190.107C608.825 189.494 607.079 189.475 605.518 190.056ZM661.965 99.3144L644.308 105.884C642.747 106.464 641.498 107.597 640.837 109.032C640.176 110.467 640.156 112.087 640.781 113.536C641.407 114.984 642.627 116.143 644.174 116.757C645.72 117.37 647.466 117.389 649.027 116.808L666.684 110.239C668.245 109.658 669.493 108.526 670.155 107.091C670.816 105.656 670.836 104.036 670.21 102.587C669.584 101.138 668.364 99.9796 666.818 99.3659C665.272 98.7522 663.526 98.7336 661.965 99.3144Z" fill="#E4B772"/>
<ellipse cx="581.687" cy="135.213" rx="42.14" ry="39.1083" fill="#F7DB78"/>
</g>
<path d="M211.792 204.229C206.474 204.229 201.929 202.517 198.159 199.092C194.388 195.668 192.504 191.482 192.506 186.536C192.506 182.296 193.88 178.518 196.627 175.202C199.373 171.886 202.967 169.766 207.409 168.842C208.87 163.841 211.792 159.792 216.175 156.693C220.558 153.595 225.525 152.046 231.077 152.046C237.915 152.046 243.716 154.261 248.48 158.693C253.244 163.124 255.625 168.518 255.622 174.876C259.655 175.311 263.001 176.928 265.661 179.729C268.322 182.529 269.651 185.804 269.648 189.552C269.648 193.629 268.114 197.095 265.044 199.95C261.975 202.805 258.25 204.231 253.869 204.229H211.792Z" fill="white"/>
<defs>
<clipPath id="clip0_3_13">
<rect width="69.7038" height="64.6965" fill="white" transform="translate(908 49)"/>
</clipPath>
<clipPath id="clip1_3_13">
<rect width="102.006" height="95.0479" fill="white" transform="translate(0 170)"/>
</clipPath>
<clipPath id="clip2_3_13">
<rect width="200.957" height="190.404" fill="white" transform="matrix(0.93724 -0.348685 0.396538 0.918018 450 83.0707)"/>
</clipPath>
</defs>
</svg>
