<?xml version="1.0" encoding="UTF-8"?>
<svg id="Layer_2" data-name="Layer 2" xmlns="http://www.w3.org/2000/svg" viewBox="0 0 1285 805">
  <defs>
    <style>
      .cls-1 {
        fill: #ea645f;
        stroke: #1a1a1a;
      }

      .cls-1, .cls-2 {
        stroke-linejoin: round;
      }

      .cls-1, .cls-2, .cls-3 {
        stroke-width: 5px;
      }

      .cls-2 {
        fill: #fff;
      }

      .cls-2, .cls-3 {
        stroke: #000;
      }

      .cls-3 {
        fill: none;
        stroke-miterlimit: 10;
      }
    </style>
  </defs>
  <g id="Layer_1-2" data-name="Layer 1">
    <g>
      <rect class="cls-2" x="2.5" y="2.5" width="1280" height="800"/>
      <rect class="cls-3" x="487.24" y="3.94" width="310.53" height="797.11"/>
      <path class="cls-3" d="m1225.74,792.72l-81.83-44.78c-5.78-3.16-9.32-8.94-9.32-15.18V69.67c0-3.95,2.16-7.63,5.73-9.76l80.51-47.99c4.14-2.47,9.57.3,9.57,4.88v773.44c0,2.23-2.6,3.62-4.66,2.49Z"/>
      <path class="cls-3" d="m58.26,791.72l81.83-44.78c5.78-3.16,9.32-8.94,9.32-15.18V68.67c0-3.95-2.16-7.63-5.73-9.76L63.17,10.91c-4.14-2.47-9.57.3-9.57,4.88v773.44c0,2.23,2.6,3.62,4.66,2.49Z"/>
      <path class="cls-1" d="m1065.97,752.71h-.78c-3.4,0-6.47-3.28-8.15-8.41-1.7-5.19-4.92-8.72-8.57-8.72s-6.86,3.51-8.56,8.68-4.76,8.4-8.16,8.39h-2.97c-6.89-.03-11.42-12.67-8.3-23.36,4.98-17.1,15.21-28.93,26.9-28.93s21.95,11.87,26.92,29.01c3.1,10.7-1.43,23.34-8.32,23.34Z"/>
      <circle class="cls-1" cx="1047.38" cy="683.52" r="16.77"/>
    </g>
  </g>
</svg>