<?xml version="1.0" encoding="UTF-8"?>
<svg id="Layer_2" data-name="Layer 2" xmlns="http://www.w3.org/2000/svg" viewBox="0 0 1285 705">
  <defs>
    <style>
      .cls-1 {
        fill: #fff;
      }

      .cls-1, .cls-2 {
        stroke-linejoin: round;
      }

      .cls-1, .cls-2, .cls-3 {
        stroke: #000;
        stroke-width: 5px;
      }

      .cls-2 {
        stroke-linecap: round;
      }

      .cls-2, .cls-3 {
        fill: none;
      }

      .cls-3 {
        stroke-miterlimit: 10;
      }
    </style>
  </defs>
  <g id="Layer_1-2" data-name="Layer 1">
    <g>
      <g>
        <rect class="cls-1" x="2.5" y="2.5" width="1280" height="700"/>
        <rect class="cls-3" x="550.75" y="3.51" width="242.6" height="697.47"/>
        <path class="cls-3" d="m191.25,700.63l63.93-39.93c4.51-2.82,7.28-7.97,7.28-13.54V55.84c0-3.53-1.69-6.81-4.48-8.71L195.08,4.33c-3.23-2.2-7.48.27-7.48,4.36v689.72c0,1.99,2.03,3.23,3.64,2.22Z"/>
      </g>
      <line class="cls-2" x1="234.68" y1="31.28" x2="234.68" y2="31.28"/>
      <path class="cls-2" d="m239.76,47.9c-.26,205.13-.52,406.4-.78,606.77"/>
      <path class="cls-2" d="m212.92,34.35c-.26,214.95-.52,426.12-.78,636.31"/>
      <path class="cls-3" d="m1100.04,700.88l-63.93-39.93c-4.51-2.82-7.28-7.97-7.28-13.54V56.09c0-3.53,1.69-6.81,4.48-8.71l62.9-42.8c3.23-2.2,7.48.27,7.48,4.36v689.72c0,1.99-2.03,3.23-3.64,2.22Z"/>
      <path class="cls-2" d="m1051.53,48.16c.26,205.13.52,406.4.78,606.77"/>
      <path class="cls-2" d="m1078.37,34.6c.26,214.95.52,426.12.78,636.31"/>
    </g>
  </g>
</svg>